<svg width="128" height="128" viewBox="0 0 128 128" fill="none" xmlns="http://www.w3.org/2000/svg">
  <rect width="128" height="128" fill="#F0F8FF"/>
  <circle cx="64" cy="64" r="40" fill="#87CEEB"/>
  <path d="M64 30L72 55L95 55L78 75L85 100L64 85L43 100L50 75L33 55L56 55L64 30Z" fill="#FFD700"/>
  <circle cx="58" cy="58" r="2.5" fill="#333"/>
  <circle cx="70" cy="58" r="2.5" fill="#333"/>
  <path d="M64 72C60.686 72 58 74.686 58 78C58 81.314 60.686 84 64 84C67.314 84 70 81.314 70 78C70 74.686 67.314 72 64 72Z" fill="#4169E1"/>
  <path d="M25 25C25 25 35 20 64 20C93 20 103 25 103 25" stroke="#87CEEB" stroke-width="2" fill="none"/>
</svg>
